<svg id="svg" version="1.1" xmlns="http://www.w3.org/2000/svg" xmlns:xlink="http://www.w3.org/1999/xlink" width="400" height="400" viewBox="0, 0, 400,400"><g id="svgg"><path id="path0" d="M157.200 100.605 C 121.025 105.832,113.473 154.470,146.246 171.148 C 148.032 172.057,149.704 172.800,149.963 172.800 C 150.221 172.800,151.640 173.202,153.116 173.693 C 157.631 175.194,168.044 175.001,173.266 173.319 C 179.165 171.419,183.926 168.628,188.479 164.402 C 189.815 163.161,194.400 157.530,194.400 157.129 C 194.400 156.967,194.918 155.957,195.550 154.884 C 196.561 153.170,197.524 150.705,198.787 146.600 C 204.181 129.062,192.064 107.444,173.758 101.949 C 167.814 100.164,162.972 99.771,157.200 100.605 M259.400 100.462 C 254.281 102.162,255.387 100.789,227.724 139.800 C 225.384 143.100,222.734 146.808,221.835 148.041 C 220.936 149.273,219.210 151.687,218.000 153.404 C 216.790 155.121,215.259 157.263,214.597 158.163 C 213.936 159.063,211.605 162.320,209.418 165.400 C 204.799 171.907,202.440 175.209,200.171 178.347 C 199.275 179.586,195.154 185.370,191.014 191.200 C 186.873 197.030,182.816 202.700,181.999 203.800 C 181.181 204.900,177.697 209.760,174.257 214.600 C 166.920 224.923,154.281 242.650,153.438 243.800 C 153.116 244.240,149.049 249.910,144.402 256.400 C 124.397 284.336,124.980 283.362,125.271 288.391 C 125.853 298.428,137.868 303.526,145.515 296.980 C 146.461 296.171,154.816 284.841,165.058 270.483 C 185.890 241.276,186.220 240.815,187.812 238.649 C 188.478 237.742,191.703 233.220,194.978 228.600 C 198.253 223.980,201.623 219.255,202.466 218.100 C 203.310 216.945,204.689 215.055,205.532 213.900 C 207.855 210.715,216.653 198.371,220.713 192.600 C 223.744 188.292,254.303 145.541,255.596 143.800 C 256.908 142.034,259.836 137.934,268.118 126.266 C 274.748 116.926,274.997 116.375,274.716 111.665 C 274.248 103.837,266.439 98.124,259.400 100.462 M167.600 126.228 C 179.613 131.800,175.728 149.956,162.515 149.994 C 156.016 150.013,150.000 144.091,150.000 137.676 C 150.000 135.793,151.105 132.136,152.056 130.869 C 156.090 125.497,162.133 123.693,167.600 126.228 M232.200 225.461 C 213.276 227.632,197.941 247.451,200.407 266.550 C 204.451 297.879,241.322 310.953,263.785 289.023 C 275.115 277.962,278.272 258.272,270.758 245.528 C 270.121 244.448,269.600 243.470,269.600 243.354 C 269.600 242.629,266.521 238.874,263.405 235.800 C 255.407 227.910,243.948 224.113,232.200 225.461 M240.440 250.434 C 254.713 254.988,252.252 274.691,237.400 274.782 C 226.328 274.850,221.004 261.447,228.990 253.610 C 231.982 250.674,236.909 249.307,240.440 250.434 " stroke="none" fill="#fbfafa" fill-rule="evenodd"></path><path id="path1" d="M143.600 0.682 C 142.058 1.464,137.200 6.127,137.200 6.824 C 137.200 7.065,136.480 7.954,135.600 8.800 C 134.720 9.646,134.000 10.441,134.000 10.568 C 134.000 10.695,133.280 11.541,132.400 12.448 C 131.520 13.355,130.800 14.252,130.800 14.441 C 130.800 14.631,129.990 15.631,129.000 16.665 C 128.010 17.698,127.200 18.663,127.200 18.810 C 127.200 18.957,126.829 19.510,126.376 20.039 C 125.922 20.567,125.202 21.406,124.776 21.903 C 124.349 22.400,124.000 22.999,124.000 23.234 C 124.000 23.470,123.280 24.354,122.400 25.200 C 121.520 26.046,120.800 26.856,120.800 27.000 C 120.800 27.144,120.080 27.954,119.200 28.800 C 118.320 29.646,117.600 30.500,117.600 30.698 C 117.600 30.896,116.700 32.022,115.600 33.200 C 114.500 34.378,113.600 35.496,113.600 35.684 C 113.600 35.873,112.970 36.657,112.200 37.427 C 111.430 38.197,110.800 38.982,110.800 39.171 C 110.800 40.608,108.282 42.120,105.289 42.480 C 103.590 42.684,101.120 43.030,99.800 43.248 C 98.480 43.466,96.365 43.740,95.100 43.858 C 93.835 43.975,92.800 44.235,92.800 44.436 C 92.800 44.636,91.731 44.800,90.424 44.800 C 89.117 44.800,87.936 44.980,87.800 45.200 C 87.664 45.420,86.494 45.600,85.200 45.600 C 83.906 45.600,82.736 45.780,82.600 46.000 C 82.464 46.220,81.384 46.400,80.200 46.400 C 79.016 46.400,77.936 46.580,77.800 46.800 C 77.664 47.020,76.584 47.200,75.400 47.200 C 74.216 47.200,73.136 47.380,73.000 47.600 C 72.864 47.820,71.694 48.000,70.400 48.000 C 69.106 48.000,67.936 48.180,67.800 48.400 C 67.664 48.620,66.584 48.800,65.400 48.800 C 64.216 48.800,63.136 48.980,63.000 49.200 C 62.864 49.420,61.953 49.600,60.976 49.600 C 59.999 49.600,59.200 49.780,59.200 50.000 C 59.200 50.220,58.660 50.400,58.000 50.400 C 57.340 50.400,56.800 50.580,56.800 50.800 C 56.800 51.020,56.542 51.200,56.226 51.200 C 55.479 51.200,51.200 55.479,51.200 56.226 C 51.200 56.542,51.020 56.800,50.800 56.800 C 50.580 56.800,50.400 57.340,50.400 58.000 C 50.400 58.660,50.220 59.200,50.000 59.200 C 49.780 59.200,49.600 59.999,49.600 60.976 C 49.600 61.953,49.420 62.864,49.200 63.000 C 48.980 63.136,48.800 64.216,48.800 65.400 C 48.800 66.584,48.620 67.664,48.400 67.800 C 48.180 67.936,48.000 69.106,48.000 70.400 C 48.000 71.694,47.820 72.864,47.600 73.000 C 47.380 73.136,47.200 74.216,47.200 75.400 C 47.200 76.584,47.020 77.664,46.800 77.800 C 46.580 77.936,46.400 79.016,46.400 80.200 C 46.400 81.384,46.220 82.464,46.000 82.600 C 45.780 82.736,45.600 83.906,45.600 85.200 C 45.600 86.494,45.420 87.664,45.200 87.800 C 44.980 87.936,44.800 89.117,44.800 90.424 C 44.800 91.731,44.636 92.800,44.436 92.800 C 44.235 92.800,43.975 93.835,43.858 95.100 C 43.740 96.365,43.466 98.480,43.248 99.800 C 43.030 101.120,42.684 103.590,42.480 105.289 C 42.122 108.267,40.610 110.800,39.190 110.800 C 39.012 110.800,38.116 111.520,37.200 112.400 C 36.284 113.280,35.388 114.000,35.209 114.000 C 35.030 114.000,34.026 114.810,32.978 115.800 C 31.930 116.790,30.907 117.600,30.705 117.600 C 30.503 117.600,29.646 118.320,28.800 119.200 C 27.954 120.080,27.144 120.800,27.000 120.800 C 26.856 120.800,26.046 121.520,25.200 122.400 C 24.354 123.280,23.470 124.000,23.234 124.000 C 22.999 124.000,22.400 124.349,21.903 124.776 C 21.406 125.202,20.567 125.922,20.039 126.376 C 19.510 126.829,18.957 127.200,18.810 127.200 C 18.663 127.200,17.698 128.010,16.665 129.000 C 15.631 129.990,14.631 130.800,14.441 130.800 C 14.252 130.800,13.355 131.520,12.448 132.400 C 11.541 133.280,10.695 134.000,10.568 134.000 C 10.441 134.000,9.646 134.720,8.800 135.600 C 7.954 136.480,7.065 137.200,6.824 137.200 C 6.062 137.200,1.418 142.132,0.644 143.764 C -0.237 145.621,-0.165 156.412,0.730 156.710 C 0.988 156.796,1.200 157.302,1.200 157.833 C 1.200 158.365,1.380 158.800,1.600 158.800 C 1.820 158.800,2.000 159.160,2.000 159.600 C 2.000 160.040,2.180 160.400,2.400 160.400 C 2.620 160.400,2.800 160.940,2.800 161.600 C 2.800 162.260,2.980 162.800,3.200 162.800 C 3.420 162.800,3.600 163.239,3.600 163.776 C 3.600 164.313,3.780 164.864,4.000 165.000 C 4.220 165.136,4.400 165.597,4.400 166.024 C 4.400 166.451,4.580 166.800,4.800 166.800 C 5.020 166.800,5.200 167.340,5.200 168.000 C 5.200 168.660,5.380 169.200,5.600 169.200 C 5.820 169.200,6.000 169.560,6.000 170.000 C 6.000 170.440,6.180 170.800,6.400 170.800 C 6.620 170.800,6.800 171.340,6.800 172.000 C 6.800 172.660,6.980 173.200,7.200 173.200 C 7.420 173.200,7.600 173.650,7.600 174.200 C 7.600 174.750,7.780 175.200,8.000 175.200 C 8.220 175.200,8.400 175.416,8.400 175.680 C 8.400 176.612,9.781 180.800,10.089 180.800 C 10.260 180.800,10.400 181.340,10.400 182.000 C 10.400 182.660,10.547 183.200,10.728 183.200 C 10.908 183.200,11.300 184.100,11.600 185.200 C 11.900 186.300,12.292 187.200,12.472 187.200 C 12.653 187.200,12.800 187.562,12.800 188.005 C 12.800 188.448,12.980 189.168,13.200 189.605 C 13.420 190.042,13.780 190.758,14.000 191.195 C 14.220 191.632,14.400 192.262,14.400 192.595 C 14.400 192.928,14.580 193.200,14.800 193.200 C 15.020 193.200,15.200 193.740,15.200 194.400 C 15.200 195.060,15.380 195.600,15.600 195.600 C 15.820 195.600,16.000 195.960,16.000 196.400 C 16.000 196.840,16.180 197.200,16.400 197.200 C 16.620 197.200,16.800 197.725,16.800 198.367 C 16.800 199.008,17.025 199.638,17.300 199.767 C 17.700 199.953,17.700 200.047,17.300 200.233 C 17.025 200.362,16.800 200.992,16.800 201.633 C 16.800 202.275,16.620 202.800,16.400 202.800 C 16.180 202.800,16.000 203.149,16.000 203.576 C 16.000 204.003,15.820 204.464,15.600 204.600 C 15.380 204.736,15.200 205.287,15.200 205.824 C 15.200 206.361,15.020 206.800,14.800 206.800 C 14.580 206.800,14.400 207.155,14.400 207.588 C 14.400 208.021,14.040 209.017,13.600 209.800 C 13.160 210.583,12.800 211.579,12.800 212.012 C 12.800 212.445,12.653 212.800,12.472 212.800 C 12.292 212.800,11.896 213.711,11.593 214.825 C 11.290 215.939,10.897 216.940,10.721 217.049 C 10.544 217.158,10.400 217.687,10.400 218.224 C 10.400 218.761,10.260 219.200,10.089 219.200 C 9.781 219.200,8.400 223.388,8.400 224.320 C 8.400 224.584,8.220 224.800,8.000 224.800 C 7.780 224.800,7.600 225.250,7.600 225.800 C 7.600 226.350,7.420 226.800,7.200 226.800 C 6.980 226.800,6.800 227.340,6.800 228.000 C 6.800 228.660,6.620 229.200,6.400 229.200 C 6.180 229.200,6.000 229.560,6.000 230.000 C 6.000 230.440,5.820 230.800,5.600 230.800 C 5.380 230.800,5.200 231.340,5.200 232.000 C 5.200 232.660,5.020 233.200,4.800 233.200 C 4.580 233.200,4.400 233.549,4.400 233.976 C 4.400 234.403,4.220 234.864,4.000 235.000 C 3.780 235.136,3.600 235.687,3.600 236.224 C 3.600 236.761,3.420 237.200,3.200 237.200 C 2.980 237.200,2.800 237.740,2.800 238.400 C 2.800 239.060,2.620 239.600,2.400 239.600 C 2.180 239.600,2.000 239.960,2.000 240.400 C 2.000 240.840,1.820 241.200,1.600 241.200 C 1.380 241.200,1.200 241.614,1.200 242.120 C 1.200 242.626,0.980 243.260,0.711 243.529 C -0.172 244.412,-0.235 254.378,0.631 256.245 C 1.358 257.812,6.072 262.800,6.826 262.800 C 7.049 262.800,7.917 263.520,8.754 264.400 C 9.591 265.280,10.412 266.000,10.578 266.000 C 10.743 266.000,11.356 266.502,11.940 267.115 C 12.523 267.729,13.630 268.673,14.400 269.212 C 15.170 269.752,16.423 270.780,17.183 271.497 C 17.944 272.214,18.690 272.800,18.841 272.800 C 18.992 272.800,19.671 273.295,20.349 273.900 C 22.476 275.796,22.754 276.000,23.214 276.000 C 23.461 276.000,24.354 276.720,25.200 277.600 C 26.046 278.480,26.856 279.200,27.000 279.200 C 27.144 279.200,27.954 279.920,28.800 280.800 C 29.646 281.680,30.500 282.400,30.698 282.400 C 30.896 282.400,32.022 283.300,33.200 284.400 C 34.378 285.500,35.496 286.400,35.684 286.400 C 35.873 286.400,36.657 287.030,37.427 287.800 C 38.197 288.570,38.982 289.200,39.171 289.200 C 40.608 289.200,42.120 291.718,42.480 294.711 C 42.684 296.410,43.030 298.880,43.248 300.200 C 43.466 301.520,43.740 303.635,43.858 304.900 C 43.975 306.165,44.235 307.200,44.436 307.200 C 44.636 307.200,44.800 308.269,44.800 309.576 C 44.800 310.883,44.980 312.064,45.200 312.200 C 45.420 312.336,45.600 313.506,45.600 314.800 C 45.600 316.094,45.780 317.264,46.000 317.400 C 46.220 317.536,46.400 318.616,46.400 319.800 C 46.400 320.984,46.580 322.064,46.800 322.200 C 47.020 322.336,47.200 323.416,47.200 324.600 C 47.200 325.784,47.380 326.864,47.600 327.000 C 47.820 327.136,48.000 328.306,48.000 329.600 C 48.000 330.894,48.180 332.064,48.400 332.200 C 48.620 332.336,48.800 333.416,48.800 334.600 C 48.800 335.784,48.980 336.864,49.200 337.000 C 49.420 337.136,49.600 338.047,49.600 339.024 C 49.600 340.001,49.780 340.800,50.000 340.800 C 50.220 340.800,50.400 341.340,50.400 342.000 C 50.400 342.660,50.580 343.200,50.800 343.200 C 51.020 343.200,51.200 343.474,51.200 343.809 C 51.200 344.601,55.399 348.800,56.191 348.800 C 56.526 348.800,56.800 348.980,56.800 349.200 C 56.800 349.420,57.340 349.600,58.000 349.600 C 58.660 349.600,59.200 349.780,59.200 350.000 C 59.200 350.220,60.010 350.400,61.000 350.400 C 61.990 350.400,62.800 350.580,62.800 350.800 C 62.800 351.022,63.867 351.200,65.200 351.200 C 66.533 351.200,67.600 351.378,67.600 351.600 C 67.600 351.822,68.659 352.000,69.976 352.000 C 71.283 352.000,72.464 352.180,72.600 352.400 C 72.736 352.620,73.906 352.800,75.200 352.800 C 76.494 352.800,77.664 352.980,77.800 353.200 C 77.936 353.420,79.016 353.600,80.200 353.600 C 81.384 353.600,82.464 353.780,82.600 354.000 C 82.736 354.220,83.816 354.400,85.000 354.400 C 86.184 354.400,87.264 354.580,87.400 354.800 C 87.536 355.020,88.706 355.200,90.000 355.200 C 91.294 355.200,92.464 355.380,92.600 355.600 C 92.736 355.820,93.791 356.000,94.944 356.000 C 96.097 356.000,97.211 356.164,97.420 356.365 C 97.629 356.565,98.790 356.831,100.000 356.956 C 101.210 357.080,103.190 357.287,104.400 357.417 C 107.459 357.743,110.400 359.168,110.400 360.323 C 110.400 360.532,111.120 361.445,112.000 362.352 C 112.880 363.259,113.600 364.159,113.600 364.352 C 113.600 364.545,114.320 365.445,115.200 366.352 C 116.080 367.259,116.800 368.181,116.800 368.400 C 116.800 368.620,116.980 368.800,117.200 368.800 C 117.420 368.800,117.600 368.994,117.600 369.231 C 117.600 369.469,118.320 370.354,119.200 371.200 C 120.080 372.046,120.800 372.869,120.800 373.031 C 120.800 373.192,121.520 374.009,122.400 374.846 C 123.280 375.683,124.000 376.554,124.000 376.781 C 124.000 377.008,124.349 377.600,124.776 378.097 C 125.202 378.594,125.922 379.433,126.376 379.961 C 126.829 380.490,127.200 381.037,127.200 381.178 C 127.200 381.318,127.786 382.056,128.503 382.817 C 129.220 383.577,130.248 384.830,130.788 385.600 C 131.327 386.370,132.271 387.477,132.885 388.060 C 133.498 388.644,134.000 389.257,134.000 389.422 C 134.000 389.588,134.720 390.409,135.600 391.246 C 136.480 392.083,137.200 392.958,137.200 393.191 C 137.200 393.940,142.147 398.589,143.755 399.352 C 145.614 400.234,155.575 400.185,156.471 399.289 C 156.740 399.020,157.374 398.800,157.880 398.800 C 158.386 398.800,158.800 398.620,158.800 398.400 C 158.800 398.180,159.160 398.000,159.600 398.000 C 160.040 398.000,160.400 397.820,160.400 397.600 C 160.400 397.380,160.940 397.200,161.600 397.200 C 162.260 397.200,162.800 397.020,162.800 396.800 C 162.800 396.580,163.239 396.400,163.776 396.400 C 164.313 396.400,164.864 396.220,165.000 396.000 C 165.136 395.780,165.597 395.600,166.024 395.600 C 166.451 395.600,166.800 395.420,166.800 395.200 C 166.800 394.980,167.340 394.800,168.000 394.800 C 168.660 394.800,169.200 394.620,169.200 394.400 C 169.200 394.180,169.560 394.000,170.000 394.000 C 170.440 394.000,170.800 393.820,170.800 393.600 C 170.800 393.380,171.340 393.200,172.000 393.200 C 172.660 393.200,173.200 393.020,173.200 392.800 C 173.200 392.580,173.650 392.400,174.200 392.400 C 174.750 392.400,175.200 392.220,175.200 392.000 C 175.200 391.780,175.416 391.600,175.680 391.600 C 176.612 391.600,180.800 390.219,180.800 389.911 C 180.800 389.740,181.340 389.600,182.000 389.600 C 182.660 389.600,183.200 389.453,183.200 389.272 C 183.200 389.092,184.100 388.700,185.200 388.400 C 186.300 388.100,187.200 387.708,187.200 387.528 C 187.200 387.347,187.555 387.200,187.988 387.200 C 188.421 387.200,189.417 386.840,190.200 386.400 C 190.983 385.960,191.979 385.600,192.412 385.600 C 192.845 385.600,193.200 385.420,193.200 385.200 C 193.200 384.980,193.740 384.800,194.400 384.800 C 195.060 384.800,195.600 384.620,195.600 384.400 C 195.600 384.180,195.960 384.000,196.400 384.000 C 196.840 384.000,197.200 383.820,197.200 383.600 C 197.200 383.380,197.725 383.200,198.367 383.200 C 199.008 383.200,199.638 382.975,199.767 382.700 C 199.953 382.300,200.047 382.300,200.233 382.700 C 200.362 382.975,200.992 383.200,201.633 383.200 C 202.275 383.200,202.800 383.380,202.800 383.600 C 202.800 383.820,203.160 384.000,203.600 384.000 C 204.040 384.000,204.400 384.180,204.400 384.400 C 204.400 384.620,204.940 384.800,205.600 384.800 C 206.260 384.800,206.800 384.980,206.800 385.200 C 206.800 385.420,207.155 385.600,207.588 385.600 C 208.021 385.600,209.017 385.960,209.800 386.400 C 210.583 386.840,211.579 387.200,212.012 387.200 C 212.445 387.200,212.800 387.347,212.800 387.528 C 212.800 387.708,213.711 388.104,214.825 388.407 C 215.939 388.710,216.940 389.103,217.049 389.279 C 217.158 389.456,217.687 389.600,218.224 389.600 C 218.761 389.600,219.200 389.740,219.200 389.911 C 219.200 390.219,223.388 391.600,224.320 391.600 C 224.584 391.600,224.800 391.780,224.800 392.000 C 224.800 392.220,225.250 392.400,225.800 392.400 C 226.350 392.400,226.800 392.580,226.800 392.800 C 226.800 393.020,227.340 393.200,228.000 393.200 C 228.660 393.200,229.200 393.380,229.200 393.600 C 229.200 393.820,229.560 394.000,230.000 394.000 C 230.440 394.000,230.800 394.180,230.800 394.400 C 230.800 394.620,231.340 394.800,232.000 394.800 C 232.660 394.800,233.200 394.980,233.200 395.200 C 233.200 395.420,233.549 395.600,233.976 395.600 C 234.403 395.600,234.864 395.780,235.000 396.000 C 235.136 396.220,235.687 396.400,236.224 396.400 C 236.761 396.400,237.200 396.580,237.200 396.800 C 237.200 397.020,237.740 397.200,238.400 397.200 C 239.060 397.200,239.600 397.380,239.600 397.600 C 239.600 397.820,239.960 398.000,240.400 398.000 C 240.840 398.000,241.200 398.180,241.200 398.400 C 241.200 398.620,241.614 398.800,242.120 398.800 C 242.626 398.800,243.265 399.025,243.540 399.300 C 244.252 400.012,256.463 400.012,256.700 399.300 C 256.792 399.025,257.056 398.800,257.287 398.800 C 257.805 398.800,262.800 393.727,262.800 393.201 C 262.800 392.992,263.565 392.022,264.500 391.046 C 267.699 387.707,269.153 386.036,269.622 385.159 C 269.880 384.677,270.701 383.673,271.446 382.928 C 272.191 382.183,272.800 381.418,272.800 381.229 C 272.800 381.040,273.295 380.329,273.900 379.651 C 275.803 377.516,276.000 377.245,276.000 376.764 C 276.000 376.248,277.520 374.800,278.061 374.800 C 278.248 374.800,278.400 374.622,278.400 374.405 C 278.400 373.952,279.092 373.080,281.500 370.497 C 282.435 369.493,283.200 368.522,283.200 368.337 C 283.200 368.152,283.920 367.259,284.800 366.352 C 285.680 365.445,286.400 364.545,286.400 364.352 C 286.400 364.159,287.120 363.259,288.000 362.352 C 288.880 361.445,289.600 360.532,289.600 360.323 C 289.600 359.168,292.541 357.743,295.600 357.417 C 296.810 357.287,298.790 357.080,300.000 356.956 C 301.210 356.831,302.371 356.565,302.580 356.365 C 302.789 356.164,303.903 356.000,305.056 356.000 C 306.209 356.000,307.264 355.820,307.400 355.600 C 307.536 355.380,308.706 355.200,310.000 355.200 C 311.294 355.200,312.464 355.020,312.600 354.800 C 312.736 354.580,313.816 354.400,315.000 354.400 C 316.184 354.400,317.264 354.220,317.400 354.000 C 317.536 353.780,318.616 353.600,319.800 353.600 C 320.984 353.600,322.064 353.420,322.200 353.200 C 322.336 352.980,323.506 352.800,324.800 352.800 C 326.094 352.800,327.264 352.620,327.400 352.400 C 327.536 352.180,328.717 352.000,330.024 352.000 C 331.341 352.000,332.400 351.822,332.400 351.600 C 332.400 351.378,333.467 351.200,334.800 351.200 C 336.133 351.200,337.200 351.022,337.200 350.800 C 337.200 350.580,337.999 350.400,338.976 350.400 C 339.953 350.400,340.864 350.220,341.000 350.000 C 341.136 349.780,341.687 349.600,342.224 349.600 C 342.761 349.600,343.200 349.420,343.200 349.200 C 343.200 348.980,343.474 348.800,343.809 348.800 C 344.601 348.800,348.800 344.601,348.800 343.809 C 348.800 343.474,348.980 343.200,349.200 343.200 C 349.420 343.200,349.600 342.761,349.600 342.224 C 349.600 341.687,349.780 341.136,350.000 341.000 C 350.220 340.864,350.400 339.953,350.400 338.976 C 350.400 337.999,350.580 337.200,350.800 337.200 C 351.022 337.200,351.200 336.133,351.200 334.800 C 351.200 333.467,351.378 332.400,351.600 332.400 C 351.822 332.400,352.000 331.341,352.000 330.024 C 352.000 328.717,352.180 327.536,352.400 327.400 C 352.620 327.264,352.800 326.094,352.800 324.800 C 352.800 323.506,352.980 322.336,353.200 322.200 C 353.420 322.064,353.600 320.984,353.600 319.800 C 353.600 318.616,353.780 317.536,354.000 317.400 C 354.220 317.264,354.400 316.209,354.400 315.056 C 354.400 313.903,354.564 312.789,354.765 312.580 C 354.965 312.371,355.231 311.210,355.356 310.000 C 355.480 308.790,355.684 306.810,355.810 305.600 C 355.936 304.390,356.201 303.040,356.400 302.600 C 356.599 302.160,356.852 300.900,356.963 299.800 C 357.666 292.832,358.731 289.600,360.323 289.600 C 360.532 289.600,361.445 288.880,362.352 288.000 C 363.259 287.120,364.159 286.400,364.352 286.400 C 364.545 286.400,365.445 285.680,366.352 284.800 C 367.259 283.920,368.181 283.200,368.400 283.200 C 368.620 283.200,368.800 283.020,368.800 282.800 C 368.800 282.580,368.994 282.400,369.231 282.400 C 369.469 282.400,370.354 281.680,371.200 280.800 C 372.046 279.920,372.869 279.200,373.031 279.200 C 373.192 279.200,374.009 278.480,374.846 277.600 C 375.683 276.720,376.563 276.000,376.801 276.000 C 377.256 276.000,377.515 275.810,379.596 273.951 C 380.305 273.318,381.027 272.800,381.200 272.800 C 381.374 272.800,382.374 271.990,383.422 271.000 C 384.470 270.010,385.493 269.200,385.695 269.200 C 385.897 269.200,386.754 268.480,387.600 267.600 C 388.446 266.720,389.269 266.000,389.431 266.000 C 389.592 266.000,390.409 265.280,391.246 264.400 C 392.083 263.520,392.951 262.800,393.174 262.800 C 393.928 262.800,398.642 257.812,399.369 256.245 C 400.235 254.378,400.172 244.412,399.289 243.529 C 399.020 243.260,398.800 242.626,398.800 242.120 C 398.800 241.614,398.620 241.200,398.400 241.200 C 398.180 241.200,398.000 240.840,398.000 240.400 C 398.000 239.960,397.820 239.600,397.600 239.600 C 397.380 239.600,397.200 239.060,397.200 238.400 C 397.200 237.740,397.020 237.200,396.800 237.200 C 396.580 237.200,396.400 236.761,396.400 236.224 C 396.400 235.687,396.220 235.136,396.000 235.000 C 395.780 234.864,395.600 234.403,395.600 233.976 C 395.600 233.549,395.420 233.200,395.200 233.200 C 394.980 233.200,394.800 232.660,394.800 232.000 C 394.800 231.340,394.620 230.800,394.400 230.800 C 394.180 230.800,394.000 230.440,394.000 230.000 C 394.000 229.560,393.820 229.200,393.600 229.200 C 393.380 229.200,393.200 228.660,393.200 228.000 C 393.200 227.340,393.020 226.800,392.800 226.800 C 392.580 226.800,392.400 226.350,392.400 225.800 C 392.400 225.250,392.220 224.800,392.000 224.800 C 391.780 224.800,391.600 224.584,391.600 224.320 C 391.600 223.388,390.219 219.200,389.911 219.200 C 389.740 219.200,389.600 218.761,389.600 218.224 C 389.600 217.687,389.456 217.158,389.279 217.049 C 389.103 216.940,388.710 215.939,388.407 214.825 C 388.104 213.711,387.708 212.800,387.528 212.800 C 387.347 212.800,387.200 212.445,387.200 212.012 C 387.200 211.579,386.840 210.583,386.400 209.800 C 385.960 209.017,385.600 208.021,385.600 207.588 C 385.600 207.155,385.420 206.800,385.200 206.800 C 384.980 206.800,384.800 206.361,384.800 205.824 C 384.800 205.287,384.620 204.736,384.400 204.600 C 384.180 204.464,384.000 204.003,384.000 203.576 C 384.000 203.149,383.820 202.800,383.600 202.800 C 383.380 202.800,383.200 202.275,383.200 201.633 C 383.200 200.992,382.975 200.362,382.700 200.233 C 382.300 200.047,382.300 199.953,382.700 199.767 C 382.975 199.638,383.200 199.008,383.200 198.367 C 383.200 197.725,383.380 197.200,383.600 197.200 C 383.820 197.200,384.000 196.840,384.000 196.400 C 384.000 195.960,384.180 195.600,384.400 195.600 C 384.620 195.600,384.800 195.060,384.800 194.400 C 384.800 193.740,384.980 193.200,385.200 193.200 C 385.420 193.200,385.600 192.928,385.600 192.595 C 385.600 192.007,385.767 191.582,386.738 189.705 C 386.992 189.213,387.200 188.448,387.200 188.005 C 387.200 187.562,387.347 187.200,387.528 187.200 C 387.708 187.200,388.100 186.300,388.400 185.200 C 388.700 184.100,389.092 183.200,389.272 183.200 C 389.453 183.200,389.600 182.660,389.600 182.000 C 389.600 181.340,389.740 180.800,389.911 180.800 C 390.219 180.800,391.600 176.612,391.600 175.680 C 391.600 175.416,391.780 175.200,392.000 175.200 C 392.220 175.200,392.400 174.750,392.400 174.200 C 392.400 173.650,392.580 173.200,392.800 173.200 C 393.020 173.200,393.200 172.660,393.200 172.000 C 393.200 171.340,393.380 170.800,393.600 170.800 C 393.820 170.800,394.000 170.440,394.000 170.000 C 394.000 169.560,394.180 169.200,394.400 169.200 C 394.620 169.200,394.800 168.660,394.800 168.000 C 394.800 167.340,394.980 166.800,395.200 166.800 C 395.420 166.800,395.600 166.451,395.600 166.024 C 395.600 165.597,395.780 165.136,396.000 165.000 C 396.220 164.864,396.400 164.313,396.400 163.776 C 396.400 163.239,396.580 162.800,396.800 162.800 C 397.020 162.800,397.200 162.260,397.200 161.600 C 397.200 160.940,397.380 160.400,397.600 160.400 C 397.820 160.400,398.000 160.040,398.000 159.600 C 398.000 159.160,398.180 158.800,398.400 158.800 C 398.620 158.800,398.800 158.365,398.800 157.833 C 398.800 157.302,399.012 156.796,399.270 156.710 C 400.165 156.412,400.237 145.621,399.356 143.764 C 398.590 142.149,393.942 137.200,393.191 137.200 C 392.958 137.200,392.083 136.480,391.246 135.600 C 390.409 134.720,389.592 134.000,389.431 134.000 C 389.269 134.000,388.446 133.280,387.600 132.400 C 386.754 131.520,385.897 130.800,385.695 130.800 C 385.493 130.800,384.470 129.990,383.422 129.000 C 382.374 128.010,381.383 127.200,381.219 127.200 C 381.056 127.200,380.490 126.829,379.961 126.376 C 379.433 125.922,378.594 125.202,378.097 124.776 C 377.600 124.349,377.020 124.000,376.807 124.000 C 376.595 124.000,375.628 123.235,374.658 122.300 C 371.630 119.381,368.657 116.800,368.322 116.800 C 368.145 116.800,367.259 116.080,366.352 115.200 C 365.445 114.320,364.539 113.600,364.338 113.600 C 364.138 113.600,363.360 112.986,362.609 112.236 C 361.859 111.486,360.700 110.550,360.034 110.157 C 358.307 109.136,357.649 107.003,356.963 100.200 C 356.852 99.100,356.599 97.840,356.400 97.400 C 356.201 96.960,355.936 95.610,355.810 94.400 C 355.684 93.190,355.480 91.210,355.356 90.000 C 355.231 88.790,354.965 87.629,354.765 87.420 C 354.564 87.211,354.400 85.996,354.400 84.720 C 354.400 83.440,354.221 82.400,354.000 82.400 C 353.778 82.400,353.600 81.333,353.600 80.000 C 353.600 78.667,353.422 77.600,353.200 77.600 C 352.978 77.600,352.800 76.541,352.800 75.224 C 352.800 73.917,352.620 72.736,352.400 72.600 C 352.180 72.464,352.000 71.283,352.000 69.976 C 352.000 68.659,351.822 67.600,351.600 67.600 C 351.378 67.600,351.200 66.533,351.200 65.200 C 351.200 63.867,351.022 62.800,350.800 62.800 C 350.580 62.800,350.400 61.990,350.400 61.000 C 350.400 60.010,350.220 59.200,350.000 59.200 C 349.780 59.200,349.600 58.660,349.600 58.000 C 349.600 57.340,349.420 56.800,349.200 56.800 C 348.980 56.800,348.800 56.526,348.800 56.191 C 348.800 55.399,344.601 51.200,343.809 51.200 C 343.474 51.200,343.200 51.020,343.200 50.800 C 343.200 50.580,342.660 50.400,342.000 50.400 C 341.340 50.400,340.800 50.220,340.800 50.000 C 340.800 49.780,339.990 49.600,339.000 49.600 C 338.010 49.600,337.200 49.420,337.200 49.200 C 337.200 48.978,336.133 48.800,334.800 48.800 C 333.467 48.800,332.400 48.622,332.400 48.400 C 332.400 48.178,331.341 48.000,330.024 48.000 C 328.717 48.000,327.536 47.820,327.400 47.600 C 327.264 47.380,326.094 47.200,324.800 47.200 C 323.506 47.200,322.336 47.020,322.200 46.800 C 322.064 46.580,320.984 46.400,319.800 46.400 C 318.616 46.400,317.536 46.220,317.400 46.000 C 317.264 45.780,316.184 45.600,315.000 45.600 C 313.816 45.600,312.736 45.420,312.600 45.200 C 312.464 44.980,311.294 44.800,310.000 44.800 C 308.706 44.800,307.536 44.620,307.400 44.400 C 307.264 44.180,306.209 44.000,305.056 44.000 C 303.903 44.000,302.789 43.836,302.580 43.635 C 302.371 43.435,301.210 43.175,300.000 43.057 C 292.079 42.290,289.600 41.482,289.600 39.666 C 289.600 39.463,288.880 38.555,288.000 37.648 C 287.120 36.741,286.400 35.841,286.400 35.648 C 286.400 35.455,285.680 34.555,284.800 33.648 C 283.920 32.741,283.200 31.848,283.200 31.663 C 283.200 31.341,281.688 29.615,277.799 25.494 C 276.810 24.445,276.000 23.403,276.000 23.177 C 276.000 22.754,275.781 22.459,273.900 20.349 C 273.295 19.671,272.800 18.960,272.800 18.771 C 272.800 18.582,272.191 17.817,271.446 17.072 C 270.701 16.327,269.880 15.323,269.622 14.841 C 269.153 13.964,267.699 12.293,264.500 8.954 C 263.565 7.978,262.800 7.008,262.800 6.799 C 262.800 6.066,257.782 1.344,256.245 0.631 C 254.378 -0.235,244.412 -0.172,243.529 0.711 C 243.260 0.980,242.626 1.200,242.120 1.200 C 241.614 1.200,241.200 1.380,241.200 1.600 C 241.200 1.820,240.840 2.000,240.400 2.000 C 239.960 2.000,239.600 2.180,239.600 2.400 C 239.600 2.620,239.060 2.800,238.400 2.800 C 237.740 2.800,237.200 2.980,237.200 3.200 C 237.200 3.420,236.761 3.600,236.224 3.600 C 235.687 3.600,235.136 3.780,235.000 4.000 C 234.864 4.220,234.403 4.400,233.976 4.400 C 233.549 4.400,233.200 4.580,233.200 4.800 C 233.200 5.020,232.660 5.200,232.000 5.200 C 231.340 5.200,230.800 5.380,230.800 5.600 C 230.800 5.820,230.440 6.000,230.000 6.000 C 229.560 6.000,229.200 6.180,229.200 6.400 C 229.200 6.620,228.660 6.800,228.000 6.800 C 227.340 6.800,226.800 6.980,226.800 7.200 C 226.800 7.420,226.350 7.600,225.800 7.600 C 225.250 7.600,224.800 7.780,224.800 8.000 C 224.800 8.220,224.584 8.400,224.320 8.400 C 223.388 8.400,219.200 9.781,219.200 10.089 C 219.200 10.260,218.838 10.400,218.395 10.400 C 217.617 10.400,217.231 10.542,215.305 11.538 C 214.813 11.792,214.048 12.000,213.605 12.000 C 213.162 12.000,212.800 12.180,212.800 12.400 C 212.800 12.620,212.445 12.800,212.012 12.800 C 211.579 12.800,210.583 13.160,209.800 13.600 C 209.017 14.040,208.021 14.400,207.588 14.400 C 207.155 14.400,206.800 14.580,206.800 14.800 C 206.800 15.020,206.361 15.200,205.824 15.200 C 205.287 15.200,204.736 15.380,204.600 15.600 C 204.464 15.820,204.003 16.000,203.576 16.000 C 203.149 16.000,202.800 16.180,202.800 16.400 C 202.800 16.620,202.275 16.800,201.633 16.800 C 200.992 16.800,200.362 17.025,200.233 17.300 C 200.047 17.700,199.953 17.700,199.767 17.300 C 199.638 17.025,199.008 16.800,198.367 16.800 C 197.725 16.800,197.200 16.620,197.200 16.400 C 197.200 16.180,196.851 16.000,196.424 16.000 C 195.997 16.000,195.536 15.820,195.400 15.600 C 195.264 15.380,194.713 15.200,194.176 15.200 C 193.639 15.200,193.200 15.020,193.200 14.800 C 193.200 14.580,192.761 14.400,192.224 14.400 C 191.687 14.400,191.136 14.220,191.000 14.000 C 190.864 13.780,190.403 13.600,189.976 13.600 C 189.549 13.600,189.200 13.420,189.200 13.200 C 189.200 12.980,188.750 12.800,188.200 12.800 C 187.650 12.800,187.200 12.620,187.200 12.400 C 187.200 12.180,186.838 12.000,186.395 12.000 C 185.952 12.000,185.232 11.820,184.795 11.600 C 184.358 11.380,183.642 11.020,183.205 10.800 C 182.768 10.580,182.048 10.400,181.605 10.400 C 181.162 10.400,180.800 10.260,180.800 10.089 C 180.800 9.917,179.675 9.461,178.300 9.073 C 176.925 8.686,175.487 8.196,175.105 7.985 C 174.723 7.773,174.138 7.600,173.805 7.600 C 173.472 7.600,173.200 7.420,173.200 7.200 C 173.200 6.980,172.660 6.800,172.000 6.800 C 171.340 6.800,170.800 6.620,170.800 6.400 C 170.800 6.180,170.440 6.000,170.000 6.000 C 169.560 6.000,169.200 5.820,169.200 5.600 C 169.200 5.380,168.660 5.200,168.000 5.200 C 167.340 5.200,166.800 5.020,166.800 4.800 C 166.800 4.580,166.361 4.400,165.824 4.400 C 165.287 4.400,164.736 4.220,164.600 4.000 C 164.464 3.780,164.003 3.600,163.576 3.600 C 163.149 3.600,162.800 3.420,162.800 3.200 C 162.800 2.980,162.260 2.800,161.600 2.800 C 160.940 2.800,160.400 2.620,160.400 2.400 C 160.400 2.180,160.040 2.000,159.600 2.000 C 159.160 2.000,158.800 1.820,158.800 1.600 C 158.800 1.380,158.386 1.200,157.880 1.200 C 157.374 1.200,156.739 0.979,156.468 0.708 C 155.596 -0.164,145.307 -0.185,143.600 0.682 M167.400 100.574 C 177.999 102.183,186.411 107.110,192.369 115.200 C 199.085 124.317,201.702 137.122,198.787 146.600 C 197.524 150.705,196.561 153.170,195.550 154.884 C 194.918 155.957,194.400 156.967,194.400 157.129 C 194.400 159.169,185.428 167.578,180.266 170.375 C 172.468 174.601,160.314 176.086,153.116 173.693 C 151.640 173.202,150.221 172.800,149.963 172.800 C 149.704 172.800,148.032 172.057,146.246 171.148 C 121.674 158.643,117.870 126.154,138.933 108.673 C 146.837 102.112,157.515 99.074,167.400 100.574 M265.754 100.478 C 271.068 102.020,274.387 106.164,274.716 111.665 C 274.997 116.375,274.748 116.926,268.118 126.266 C 259.836 137.934,256.908 142.034,255.596 143.800 C 254.303 145.541,223.744 188.292,220.713 192.600 C 216.653 198.371,207.855 210.715,205.532 213.900 C 204.689 215.055,203.310 216.945,202.466 218.100 C 201.623 219.255,198.253 223.980,194.978 228.600 C 191.703 233.220,188.478 237.742,187.812 238.649 C 186.220 240.815,185.890 241.276,165.058 270.483 C 154.816 284.841,146.461 296.171,145.515 296.980 C 137.868 303.526,125.853 298.428,125.271 288.391 C 124.980 283.362,124.397 284.336,144.402 256.400 C 149.049 249.910,153.116 244.240,153.438 243.800 C 154.281 242.650,166.920 224.923,174.257 214.600 C 177.697 209.760,181.181 204.900,181.999 203.800 C 182.816 202.700,186.873 197.030,191.014 191.200 C 195.154 185.370,199.275 179.586,200.171 178.347 C 202.440 175.209,204.799 171.907,209.418 165.400 C 211.605 162.320,213.936 159.063,214.597 158.163 C 215.259 157.263,216.790 155.121,218.000 153.404 C 219.210 151.687,220.936 149.273,221.835 148.041 C 222.734 146.808,225.384 143.100,227.724 139.800 C 240.597 121.647,252.979 104.469,253.856 103.548 C 256.543 100.726,261.872 99.351,265.754 100.478 M158.600 125.731 C 155.842 126.813,154.039 128.229,152.056 130.869 C 150.353 133.137,149.503 138.329,150.451 140.681 C 154.430 150.564,164.849 153.214,171.557 146.049 C 180.154 136.868,170.161 121.198,158.600 125.731 M248.110 226.747 C 256.355 229.235,269.600 239.471,269.600 243.354 C 269.600 243.470,270.121 244.448,270.758 245.528 C 274.846 252.461,275.983 265.171,273.251 273.400 C 268.447 287.874,257.757 297.012,242.800 299.433 C 225.217 302.277,207.684 291.357,202.054 274.056 C 192.817 245.667,219.610 218.146,248.110 226.747 M233.033 250.992 C 222.949 255.138,222.441 268.968,232.200 273.648 C 242.154 278.422,253.041 268.558,249.187 258.256 C 246.734 251.700,239.368 248.388,233.033 250.992 " stroke="none" fill="#f44434" fill-rule="evenodd"></path></g></svg>