<svg id="svg" version="1.1" xmlns="http://www.w3.org/2000/svg" xmlns:xlink="http://www.w3.org/1999/xlink" width="400" height="400" viewBox="0, 0, 400,400"><g id="svgg"><path id="path0" d="M80.669 63.785 C 72.987 67.572,72.889 81.982,80.517 86.072 C 84.664 88.297,315.336 88.297,319.483 86.072 C 326.980 82.052,326.980 67.948,319.483 63.928 C 315.623 61.857,84.858 61.720,80.669 63.785 M30.669 188.785 C 22.987 192.572,22.889 206.982,30.517 211.072 C 34.672 213.301,365.328 213.301,369.483 211.072 C 376.980 207.052,376.980 192.948,369.483 188.928 C 365.617 186.854,34.868 186.715,30.669 188.785 M80.669 313.785 C 72.987 317.572,72.889 331.982,80.517 336.072 C 84.664 338.297,315.336 338.297,319.483 336.072 C 326.980 332.052,326.980 317.948,319.483 313.928 C 315.623 311.857,84.858 311.720,80.669 313.785 " stroke="none" fill="#000000" fill-rule="evenodd"></path></g></svg>